<?xml version="1.0" encoding="utf-8"?>
<!-- Generator: Adobe Illustrator 22.0.1, SVG Export Plug-In . SVG Version: 6.00 Build 0)  -->
<svg version="1.1" xmlns="http://www.w3.org/2000/svg" xmlns:xlink="http://www.w3.org/1999/xlink" x="0px" y="0px"
	 viewBox="0 0 320 620" style="enable-background:new 0 0 320 620;" xml:space="preserve">
<style type="text/css">
	.st0{fill:#B4DFED;}
	.st1{fill:#ECD3BF;}
</style>
<g id="Layer_1">
	<g>
		<path class="st0" d="M34.3,618.8h-13V294.2l0.1-0.4c0.1-0.4,1.6-11,9.9-21.4c7.5-9.5,22.2-20.8,49.4-20.8h78.2v13H80.6
			c-17.7,0-30.9,5.3-39.2,15.8c-5.3,6.6-6.8,13.3-7.1,14.8V618.8z"/>
	</g>
	<path class="st1" d="M211.2,452l0.6-29.1c0,0-7.6-2.7-51.8-2.7c-44.3,0-51.8,2.7-51.8,2.7l0.6,29.1c-6.4,19.1,0,30.9,1.8,34.6
		s3.7,113.7,3.7,123.7c0,0.3,0.1,0.7,0.1,1l0.4,7.6h41.2h3.5h0.8h6.7h38l0.4-7.7c0.1-0.3,0.1-0.6,0.1-0.9c0-10,1.9-120.1,3.7-123.7
		S217.6,471.1,211.2,452z M198.3,615h-76.6l-7-187.4h90.6L198.3,615z"/>
</g>
<g id="Layer_2">
	<path class="st0" d="M162.8,245.7h-1.1l3-17.2h-19.6l3.4,17.2H147c0,0-0.3,2.6-4.7,2.6v0.7l-60.1,1.7v6.2v8.5l28.2-0.8
		c33.8,0,44.7,27.7,44.7,27.7l10.3-6.2c0,0-5.4-8.9-9-17c-3.6-8.1,11.1-4.3,11.1-4.3v-7.3v-2.9v-6.3
		C163,248.2,162.8,245.7,162.8,245.7z"/>
</g>
</svg>
